<svg width="208" height="57" viewBox="0 0 208 57" fill="none" xmlns="http://www.w3.org/2000/svg">
<path d="M9.63086 0.62793H25.7012C30.6736 0.62793 34.7051 4.65843 34.7051 9.63086C34.7051 14.6033 30.6736 18.6338 25.7012 18.6338H9.63086C4.65844 18.6338 0.627942 14.6033 0.62793 9.63086C0.62793 4.65843 4.65843 0.62793 9.63086 0.62793Z" stroke="url(#paint0_linear_1891_6272)" stroke-width="1.2549"/>
<path d="M8 13.1048V6.15625H10.6913C11.5069 6.15625 12.143 6.35198 12.5997 6.74345C13.0564 7.13491 13.2848 7.67644 13.2848 8.36803C13.2848 8.83126 13.1804 9.23251 12.9716 9.57178C12.7628 9.90453 12.466 10.159 12.081 10.3351C11.6961 10.5113 11.2328 10.5994 10.6913 10.5994H9.27226V13.1048H8ZM9.27226 9.49349H10.6326C11.0632 9.49349 11.3927 9.39888 11.621 9.20968C11.8559 9.02047 11.9734 8.73992 11.9734 8.36803C11.9734 8.00266 11.8559 7.72863 11.621 7.54595C11.3927 7.35674 11.0632 7.26214 10.6326 7.26214H9.27226V9.49349Z" fill="#FAFAFA"/>
<path d="M14.2847 13.1048V6.15625H17.1913C17.6937 6.15625 18.1275 6.24107 18.4929 6.4107C18.8583 6.58034 19.1421 6.82174 19.3443 7.13491C19.5466 7.44808 19.6477 7.81671 19.6477 8.2408C19.6477 8.5605 19.5792 8.84431 19.4422 9.09224C19.3052 9.34016 19.1193 9.53916 18.8844 9.68922C18.656 9.83928 18.4016 9.93062 18.121 9.96325L18.0721 9.86538C18.5223 9.86538 18.8681 9.96651 19.1095 10.1688C19.3574 10.371 19.4977 10.6809 19.5303 11.0985L19.7065 13.1048H18.4146L18.2678 11.2844C18.2482 11.0104 18.1602 10.8082 18.0036 10.6777C17.847 10.5472 17.586 10.4819 17.2207 10.4819H15.5569V13.1048H14.2847ZM15.5569 9.36626H17.113C17.4979 9.36626 17.7981 9.27492 18.0134 9.09224C18.2287 8.90955 18.3363 8.65184 18.3363 8.31909C18.3363 7.97982 18.2254 7.71885 18.0036 7.53616C17.7883 7.35348 17.4718 7.26214 17.0543 7.26214H15.5569V9.36626Z" fill="#FAFAFA"/>
<path d="M24.0144 13.2617C23.3294 13.2617 22.7389 13.1181 22.243 12.8311C21.7472 12.5375 21.3655 12.1199 21.098 11.5784C20.837 11.0368 20.7065 10.3909 20.7065 9.64062C20.7065 8.89032 20.837 8.2444 21.098 7.70287C21.3655 7.15482 21.7472 6.734 22.243 6.4404C22.7389 6.1468 23.3294 6 24.0144 6C24.7125 6 25.3063 6.1468 25.7956 6.4404C26.2914 6.734 26.6699 7.15482 26.9308 7.70287C27.1983 8.2444 27.3321 8.89032 27.3321 9.64062C27.3321 10.3909 27.1983 11.0368 26.9308 11.5784C26.6699 12.1199 26.2914 12.5375 25.7956 12.8311C25.3063 13.1181 24.7125 13.2617 24.0144 13.2617ZM24.0144 12.1558C24.4385 12.1558 24.7974 12.0579 25.0909 11.8622C25.3911 11.6599 25.6194 11.3729 25.776 11.001C25.9391 10.6225 26.0207 10.1691 26.0207 9.64062C26.0207 9.11215 25.9391 8.6587 25.776 8.28028C25.6194 7.90187 25.3911 7.61153 25.0909 7.40927C24.7974 7.20702 24.4385 7.10589 24.0144 7.10589C23.6034 7.10589 23.2478 7.20702 22.9477 7.40927C22.6476 7.61153 22.4159 7.90187 22.2528 8.28028C22.0962 8.6587 22.018 9.11215 22.018 9.64062C22.018 10.1691 22.0962 10.6225 22.2528 11.001C22.4159 11.3729 22.6476 11.6599 22.9477 11.8622C23.2478 12.0579 23.6034 12.1558 24.0144 12.1558Z" fill="#FAFAFA"/>
<path d="M1.328 37.2617V26.0617H6.8C8.208 26.0617 9.264 26.3284 9.968 26.8617C10.6827 27.3951 11.04 28.0991 11.04 28.9737C11.04 29.5604 10.896 30.0724 10.608 30.5097C10.32 30.9364 9.92533 31.2671 9.424 31.5017C8.92267 31.7364 8.34667 31.8537 7.696 31.8537L8 31.1977C8.704 31.1977 9.328 31.3151 9.872 31.5497C10.416 31.7737 10.8373 32.1097 11.136 32.5577C11.4453 33.0057 11.6 33.5551 11.6 34.2057C11.6 35.1657 11.2213 35.9177 10.464 36.4617C9.70667 36.9951 8.592 37.2617 7.12 37.2617H1.328ZM3.904 35.3097H6.928C7.6 35.3097 8.10667 35.2031 8.448 34.9897C8.8 34.7657 8.976 34.4137 8.976 33.9337C8.976 33.4644 8.8 33.1177 8.448 32.8937C8.10667 32.6591 7.6 32.5417 6.928 32.5417H3.712V30.6537H6.48C7.10933 30.6537 7.58933 30.5471 7.92 30.3337C8.26133 30.1097 8.432 29.7737 8.432 29.3257C8.432 28.8884 8.26133 28.5631 7.92 28.3497C7.58933 28.1257 7.10933 28.0137 6.48 28.0137H3.904V35.3097ZM13.3864 37.2617V28.6537H15.8824V37.2617H13.3864ZM14.6344 27.4537C14.1757 27.4537 13.8024 27.3204 13.5144 27.0537C13.2264 26.7871 13.0824 26.4564 13.0824 26.0617C13.0824 25.6671 13.2264 25.3364 13.5144 25.0697C13.8024 24.8031 14.1757 24.6697 14.6344 24.6697C15.093 24.6697 15.4664 24.7977 15.7544 25.0537C16.0424 25.2991 16.1864 25.6191 16.1864 26.0137C16.1864 26.4297 16.0424 26.7764 15.7544 27.0537C15.477 27.3204 15.1037 27.4537 14.6344 27.4537ZM23.2869 37.3897C22.5295 37.3897 21.8789 37.2297 21.3349 36.9097C20.7909 36.5897 20.3749 36.1044 20.0869 35.4537C19.7989 34.7924 19.6549 33.9604 19.6549 32.9577C19.6549 31.9444 19.8042 31.1124 20.1029 30.4617C20.4122 29.8111 20.8389 29.3257 21.3829 29.0057C21.9269 28.6857 22.5615 28.5257 23.2869 28.5257C24.0975 28.5257 24.8229 28.7071 25.4629 29.0697C26.1135 29.4324 26.6255 29.9444 26.9989 30.6057C27.3829 31.2671 27.5749 32.0511 27.5749 32.9577C27.5749 33.8537 27.3829 34.6324 26.9989 35.2937C26.6255 35.9551 26.1135 36.4724 25.4629 36.8457C24.8229 37.2084 24.0975 37.3897 23.2869 37.3897ZM18.1989 37.2617V25.3897H20.6949V30.3977L20.5349 32.9417L20.5829 35.5017V37.2617H18.1989ZM22.8549 35.3417C23.2709 35.3417 23.6389 35.2457 23.9589 35.0537C24.2895 34.8617 24.5509 34.5897 24.7429 34.2377C24.9455 33.8751 25.0469 33.4484 25.0469 32.9577C25.0469 32.4564 24.9455 32.0297 24.7429 31.6777C24.5509 31.3257 24.2895 31.0537 23.9589 30.8617C23.6389 30.6697 23.2709 30.5737 22.8549 30.5737C22.4389 30.5737 22.0655 30.6697 21.7349 30.8617C21.4042 31.0537 21.1429 31.3257 20.9509 31.6777C20.7589 32.0297 20.6629 32.4564 20.6629 32.9577C20.6629 33.4484 20.7589 33.8751 20.9509 34.2377C21.1429 34.5897 21.4042 34.8617 21.7349 35.0537C22.0655 35.2457 22.4389 35.3417 22.8549 35.3417ZM29.2458 37.2617V25.3897H31.7418V37.2617H29.2458ZM38.3303 37.3897C37.3489 37.3897 36.4849 37.1977 35.7383 36.8137C35.0023 36.4297 34.4316 35.9071 34.0263 35.2457C33.6209 34.5737 33.4183 33.8111 33.4183 32.9577C33.4183 32.0937 33.6156 31.3311 34.0103 30.6697C34.4156 29.9977 34.9649 29.4751 35.6583 29.1017C36.3516 28.7177 37.1356 28.5257 38.0103 28.5257C38.8529 28.5257 39.6103 28.7071 40.2823 29.0697C40.9649 29.4217 41.5036 29.9337 41.8983 30.6057C42.2929 31.2671 42.4903 32.0617 42.4903 32.9897C42.4903 33.0857 42.4849 33.1977 42.4743 33.3257C42.4636 33.4431 42.4529 33.5551 42.4423 33.6617H35.4503V32.2057H41.1302L40.1703 32.6377C40.1703 32.1897 40.0796 31.8004 39.8983 31.4697C39.7169 31.1391 39.4663 30.8831 39.1463 30.7017C38.8263 30.5097 38.4529 30.4137 38.0263 30.4137C37.5996 30.4137 37.2209 30.5097 36.8903 30.7017C36.5703 30.8831 36.3196 31.1444 36.1383 31.4857C35.9569 31.8164 35.8663 32.2111 35.8663 32.6697V33.0537C35.8663 33.5231 35.9676 33.9391 36.1703 34.3017C36.3836 34.6537 36.6769 34.9257 37.0503 35.1177C37.4343 35.2991 37.8823 35.3897 38.3943 35.3897C38.8529 35.3897 39.2529 35.3204 39.5943 35.1817C39.9463 35.0431 40.2663 34.8351 40.5543 34.5577L41.8823 35.9977C41.4876 36.4457 40.9916 36.7924 40.3943 37.0377C39.7969 37.2724 39.1089 37.3897 38.3303 37.3897ZM48.8593 37.2617V26.0617H57.3233V28.1417H51.4353V35.1817H57.5312V37.2617H48.8593ZM51.2433 32.5897V30.5737H56.6353V32.5897H51.2433ZM59.4176 37.2617V28.6537H61.8016V31.0377L61.3536 30.3177C61.663 29.7417 62.1056 29.2991 62.6816 28.9897C63.2576 28.6804 63.9136 28.5257 64.6496 28.5257C65.3323 28.5257 65.9403 28.6644 66.4736 28.9417C67.0176 29.2084 67.4443 29.6244 67.7536 30.1897C68.063 30.7444 68.2176 31.4591 68.2176 32.3337V37.2617H65.7216V32.7177C65.7216 32.0244 65.567 31.5124 65.2576 31.1817C64.959 30.8511 64.5323 30.6857 63.9776 30.6857C63.583 30.6857 63.2256 30.7711 62.9056 30.9417C62.5963 31.1017 62.351 31.3524 62.1696 31.6937C61.999 32.0351 61.9136 32.4724 61.9136 33.0057V37.2617H59.4176ZM74.5906 40.4937C73.78 40.4937 72.996 40.3924 72.2386 40.1897C71.492 39.9977 70.868 39.7044 70.3666 39.3097L71.3586 37.5177C71.7213 37.8164 72.18 38.0511 72.7346 38.2217C73.3 38.4031 73.8546 38.4937 74.3986 38.4937C75.284 38.4937 75.924 38.2964 76.3186 37.9017C76.724 37.5071 76.9266 36.9204 76.9266 36.1417V34.8457L77.0866 32.6857L77.0546 30.5097V28.6537H79.4226V35.8217C79.4226 37.4217 79.0066 38.6004 78.1746 39.3577C77.3426 40.1151 76.148 40.4937 74.5906 40.4937ZM74.2066 36.8457C73.4066 36.8457 72.6813 36.6751 72.0306 36.3337C71.3906 35.9817 70.8733 35.4964 70.4786 34.8777C70.0946 34.2484 69.9026 33.5177 69.9026 32.6857C69.9026 31.8431 70.0946 31.1124 70.4786 30.4937C70.8733 29.8644 71.3906 29.3791 72.0306 29.0377C72.6813 28.6964 73.4066 28.5257 74.2066 28.5257C74.932 28.5257 75.572 28.6751 76.1266 28.9737C76.6813 29.2617 77.1133 29.7151 77.4226 30.3337C77.732 30.9417 77.8866 31.7257 77.8866 32.6857C77.8866 33.6351 77.732 34.4191 77.4226 35.0377C77.1133 35.6457 76.6813 36.0991 76.1266 36.3977C75.572 36.6964 74.932 36.8457 74.2066 36.8457ZM74.7026 34.7977C75.14 34.7977 75.5293 34.7124 75.8706 34.5417C76.212 34.3604 76.4786 34.1097 76.6706 33.7897C76.8626 33.4697 76.9586 33.1017 76.9586 32.6857C76.9586 32.2591 76.8626 31.8911 76.6706 31.5817C76.4786 31.2617 76.212 31.0164 75.8706 30.8457C75.5293 30.6644 75.14 30.5737 74.7026 30.5737C74.2653 30.5737 73.876 30.6644 73.5346 30.8457C73.1933 31.0164 72.9213 31.2617 72.7186 31.5817C72.5266 31.8911 72.4306 32.2591 72.4306 32.6857C72.4306 33.1017 72.5266 33.4697 72.7186 33.7897C72.9213 34.1097 73.1933 34.3604 73.5346 34.5417C73.876 34.7124 74.2653 34.7977 74.7026 34.7977ZM87.0258 37.2617V35.5817L86.8658 35.2137V32.2057C86.8658 31.6724 86.7004 31.2564 86.3698 30.9577C86.0498 30.6591 85.5538 30.5097 84.8818 30.5097C84.4231 30.5097 83.9698 30.5844 83.5218 30.7337C83.0844 30.8724 82.7111 31.0644 82.4018 31.3097L81.5058 29.5657C81.9751 29.2351 82.5404 28.9791 83.2018 28.7977C83.8631 28.6164 84.5351 28.5257 85.2178 28.5257C86.5298 28.5257 87.5484 28.8351 88.2738 29.4537C88.9991 30.0724 89.3618 31.0377 89.3618 32.3497V37.2617H87.0258ZM84.4018 37.3897C83.7298 37.3897 83.1538 37.2777 82.6738 37.0537C82.1938 36.8191 81.8258 36.5044 81.5698 36.1097C81.3138 35.7151 81.1858 35.2724 81.1858 34.7817C81.1858 34.2697 81.3084 33.8217 81.5538 33.4377C81.8098 33.0537 82.2098 32.7551 82.7538 32.5417C83.2978 32.3177 84.0071 32.2057 84.8818 32.2057H87.1698V33.6617H85.1538C84.5671 33.6617 84.1618 33.7577 83.9378 33.9497C83.7244 34.1417 83.6178 34.3817 83.6178 34.6697C83.6178 34.9897 83.7404 35.2457 83.9858 35.4377C84.2418 35.6191 84.5884 35.7097 85.0258 35.7097C85.4418 35.7097 85.8151 35.6137 86.1458 35.4217C86.4764 35.2191 86.7164 34.9257 86.8658 34.5417L87.2498 35.6937C87.0684 36.2484 86.7378 36.6697 86.2578 36.9577C85.7778 37.2457 85.1591 37.3897 84.4018 37.3897ZM95.7313 40.4937C94.9206 40.4937 94.1366 40.3924 93.3793 40.1897C92.6326 39.9977 92.0086 39.7044 91.5073 39.3097L92.4993 37.5177C92.8619 37.8164 93.3206 38.0511 93.8753 38.2217C94.4406 38.4031 94.9953 38.4937 95.5393 38.4937C96.4246 38.4937 97.0646 38.2964 97.4593 37.9017C97.8646 37.5071 98.0673 36.9204 98.0673 36.1417V34.8457L98.2273 32.6857L98.1953 30.5097V28.6537H100.563V35.8217C100.563 37.4217 100.147 38.6004 99.3153 39.3577C98.4833 40.1151 97.2886 40.4937 95.7313 40.4937ZM95.3473 36.8457C94.5473 36.8457 93.8219 36.6751 93.1713 36.3337C92.5313 35.9817 92.0139 35.4964 91.6193 34.8777C91.2353 34.2484 91.0433 33.5177 91.0433 32.6857C91.0433 31.8431 91.2353 31.1124 91.6193 30.4937C92.0139 29.8644 92.5313 29.3791 93.1713 29.0377C93.8219 28.6964 94.5473 28.5257 95.3473 28.5257C96.0726 28.5257 96.7126 28.6751 97.2673 28.9737C97.8219 29.2617 98.2539 29.7151 98.5633 30.3337C98.8726 30.9417 99.0273 31.7257 99.0273 32.6857C99.0273 33.6351 98.8726 34.4191 98.5633 35.0377C98.2539 35.6457 97.8219 36.0991 97.2673 36.3977C96.7126 36.6964 96.0726 36.8457 95.3473 36.8457ZM95.8433 34.7977C96.2806 34.7977 96.6699 34.7124 97.0113 34.5417C97.3526 34.3604 97.6193 34.1097 97.8113 33.7897C98.0033 33.4697 98.0993 33.1017 98.0993 32.6857C98.0993 32.2591 98.0033 31.8911 97.8113 31.5817C97.6193 31.2617 97.3526 31.0164 97.0113 30.8457C96.6699 30.6644 96.2806 30.5737 95.8433 30.5737C95.4059 30.5737 95.0166 30.6644 94.6753 30.8457C94.3339 31.0164 94.0619 31.2617 93.8593 31.5817C93.6673 31.8911 93.5713 32.2591 93.5713 32.6857C93.5713 33.1017 93.6673 33.4697 93.8593 33.7897C94.0619 34.1097 94.3339 34.3604 94.6753 34.5417C95.0166 34.7124 95.4059 34.7977 95.8433 34.7977ZM107.158 37.3897C106.177 37.3897 105.313 37.1977 104.566 36.8137C103.83 36.4297 103.26 35.9071 102.854 35.2457C102.449 34.5737 102.246 33.8111 102.246 32.9577C102.246 32.0937 102.444 31.3311 102.838 30.6697C103.244 29.9977 103.793 29.4751 104.486 29.1017C105.18 28.7177 105.964 28.5257 106.838 28.5257C107.681 28.5257 108.438 28.7071 109.11 29.0697C109.793 29.4217 110.332 29.9337 110.726 30.6057C111.121 31.2671 111.318 32.0617 111.318 32.9897C111.318 33.0857 111.313 33.1977 111.302 33.3257C111.292 33.4431 111.281 33.5551 111.27 33.6617H104.278V32.2057H109.958L108.998 32.6377C108.998 32.1897 108.908 31.8004 108.726 31.4697C108.545 31.1391 108.294 30.8831 107.974 30.7017C107.654 30.5097 107.281 30.4137 106.854 30.4137C106.428 30.4137 106.049 30.5097 105.718 30.7017C105.398 30.8831 105.148 31.1444 104.966 31.4857C104.785 31.8164 104.694 32.2111 104.694 32.6697V33.0537C104.694 33.5231 104.796 33.9391 104.998 34.3017C105.212 34.6537 105.505 34.9257 105.878 35.1177C106.262 35.2991 106.71 35.3897 107.222 35.3897C107.681 35.3897 108.081 35.3204 108.422 35.1817C108.774 35.0431 109.094 34.8351 109.382 34.5577L110.71 35.9977C110.316 36.4457 109.82 36.7924 109.222 37.0377C108.625 37.2724 107.937 37.3897 107.158 37.3897ZM112.98 37.2617V28.6537H115.364V31.0057L114.916 30.3177C115.215 29.7311 115.636 29.2884 116.18 28.9897C116.735 28.6804 117.364 28.5257 118.068 28.5257C118.857 28.5257 119.545 28.7284 120.132 29.1337C120.729 29.5284 121.124 30.1364 121.316 30.9577L120.436 30.7177C120.724 30.0457 121.183 29.5124 121.812 29.1177C122.452 28.7231 123.183 28.5257 124.004 28.5257C124.687 28.5257 125.289 28.6644 125.812 28.9417C126.345 29.2084 126.761 29.6244 127.06 30.1897C127.369 30.7444 127.524 31.4591 127.524 32.3337V37.2617H125.028V32.7177C125.028 32.0244 124.884 31.5124 124.596 31.1817C124.308 30.8511 123.903 30.6857 123.38 30.6857C123.017 30.6857 122.692 30.7711 122.404 30.9417C122.116 31.1017 121.892 31.3471 121.732 31.6777C121.572 32.0084 121.492 32.4297 121.492 32.9417V37.2617H118.996V32.7177C118.996 32.0244 118.852 31.5124 118.564 31.1817C118.287 30.8511 117.887 30.6857 117.364 30.6857C117.001 30.6857 116.676 30.7711 116.388 30.9417C116.1 31.1017 115.876 31.3471 115.716 31.6777C115.556 32.0084 115.476 32.4297 115.476 32.9417V37.2617H112.98ZM134.096 37.3897C133.115 37.3897 132.251 37.1977 131.504 36.8137C130.768 36.4297 130.197 35.9071 129.792 35.2457C129.387 34.5737 129.184 33.8111 129.184 32.9577C129.184 32.0937 129.381 31.3311 129.776 30.6697C130.181 29.9977 130.731 29.4751 131.424 29.1017C132.117 28.7177 132.901 28.5257 133.776 28.5257C134.619 28.5257 135.376 28.7071 136.048 29.0697C136.731 29.4217 137.269 29.9337 137.664 30.6057C138.059 31.2671 138.256 32.0617 138.256 32.9897C138.256 33.0857 138.251 33.1977 138.24 33.3257C138.229 33.4431 138.219 33.5551 138.208 33.6617H131.216V32.2057H136.896L135.936 32.6377C135.936 32.1897 135.845 31.8004 135.664 31.4697C135.483 31.1391 135.232 30.8831 134.912 30.7017C134.592 30.5097 134.219 30.4137 133.792 30.4137C133.365 30.4137 132.987 30.5097 132.656 30.7017C132.336 30.8831 132.085 31.1444 131.904 31.4857C131.723 31.8164 131.632 32.2111 131.632 32.6697V33.0537C131.632 33.5231 131.733 33.9391 131.936 34.3017C132.149 34.6537 132.443 34.9257 132.816 35.1177C133.2 35.2991 133.648 35.3897 134.16 35.3897C134.619 35.3897 135.019 35.3204 135.36 35.1817C135.712 35.0431 136.032 34.8351 136.32 34.5577L137.648 35.9977C137.253 36.4457 136.757 36.7924 136.16 37.0377C135.563 37.2724 134.875 37.3897 134.096 37.3897ZM139.918 37.2617V28.6537H142.302V31.0377L141.854 30.3177C142.163 29.7417 142.606 29.2991 143.182 28.9897C143.758 28.6804 144.414 28.5257 145.15 28.5257C145.832 28.5257 146.44 28.6644 146.974 28.9417C147.518 29.2084 147.944 29.6244 148.254 30.1897C148.563 30.7444 148.718 31.4591 148.718 32.3337V37.2617H146.222V32.7177C146.222 32.0244 146.067 31.5124 145.758 31.1817C145.459 30.8511 145.032 30.6857 144.478 30.6857C144.083 30.6857 143.726 30.7711 143.406 30.9417C143.096 31.1017 142.851 31.3524 142.67 31.6937C142.499 32.0351 142.414 32.4724 142.414 33.0057V37.2617H139.918ZM154.5 37.3897C153.487 37.3897 152.697 37.1337 152.132 36.6217C151.567 36.0991 151.284 35.3257 151.284 34.3017V26.7497H153.78V34.2697C153.78 34.6324 153.876 34.9151 154.068 35.1177C154.26 35.3097 154.521 35.4057 154.852 35.4057C155.247 35.4057 155.583 35.2991 155.86 35.0857L156.532 36.8457C156.276 37.0271 155.967 37.1657 155.604 37.2617C155.252 37.3471 154.884 37.3897 154.5 37.3897ZM149.956 30.5737V28.6537H155.924V30.5737H149.956ZM1.328 53.2617V42.0617H6.176C7.17867 42.0617 8.04267 42.2271 8.768 42.5577C9.49333 42.8777 10.0533 43.3417 10.448 43.9497C10.8427 44.5577 11.04 45.2831 11.04 46.1257C11.04 46.9577 10.8427 47.6777 10.448 48.2857C10.0533 48.8937 9.49333 49.3631 8.768 49.6937C8.04267 50.0137 7.17867 50.1737 6.176 50.1737H2.768L3.92 49.0057V53.2617H1.328ZM3.92 49.2937L2.768 48.0617H6.032C6.832 48.0617 7.42933 47.8911 7.824 47.5497C8.21867 47.2084 8.416 46.7337 8.416 46.1257C8.416 45.5071 8.21867 45.0271 7.824 44.6857C7.42933 44.3444 6.832 44.1737 6.032 44.1737H2.768L3.92 42.9417V49.2937ZM12.6989 53.2617V44.6537H15.0829V47.0857L14.7469 46.3817C15.0029 45.7737 15.4135 45.3151 15.9789 45.0057C16.5442 44.6857 17.2322 44.5257 18.0429 44.5257V46.8297C17.9362 46.8191 17.8402 46.8137 17.7549 46.8137C17.6695 46.8031 17.5789 46.7977 17.4829 46.7977C16.8002 46.7977 16.2455 46.9951 15.8189 47.3897C15.4029 47.7737 15.1949 48.3764 15.1949 49.1977V53.2617H12.6989ZM23.5605 53.3897C22.6432 53.3897 21.8272 53.1977 21.1125 52.8137C20.4085 52.4297 19.8485 51.9071 19.4325 51.2457C19.0272 50.5737 18.8245 49.8111 18.8245 48.9577C18.8245 48.0937 19.0272 47.3311 19.4325 46.6697C19.8485 45.9977 20.4085 45.4751 21.1125 45.1017C21.8272 44.7177 22.6432 44.5257 23.5605 44.5257C24.4672 44.5257 25.2778 44.7177 25.9925 45.1017C26.7072 45.4751 27.2672 45.9924 27.6725 46.6537C28.0778 47.3151 28.2805 48.0831 28.2805 48.9577C28.2805 49.8111 28.0778 50.5737 27.6725 51.2457C27.2672 51.9071 26.7072 52.4297 25.9925 52.8137C25.2778 53.1977 24.4672 53.3897 23.5605 53.3897ZM23.5605 51.3417C23.9765 51.3417 24.3498 51.2457 24.6805 51.0537C25.0112 50.8617 25.2725 50.5897 25.4645 50.2377C25.6565 49.8751 25.7525 49.4484 25.7525 48.9577C25.7525 48.4564 25.6565 48.0297 25.4645 47.6777C25.2725 47.3257 25.0112 47.0537 24.6805 46.8617C24.3498 46.6697 23.9765 46.5737 23.5605 46.5737C23.1445 46.5737 22.7712 46.6697 22.4405 46.8617C22.1098 47.0537 21.8432 47.3257 21.6405 47.6777C21.4485 48.0297 21.3525 48.4564 21.3525 48.9577C21.3525 49.4484 21.4485 49.8751 21.6405 50.2377C21.8432 50.5897 22.1098 50.8617 22.4405 51.0537C22.7712 51.2457 23.1445 51.3417 23.5605 51.3417ZM29.1995 56.4937C28.8155 56.4937 28.4475 56.4511 28.0955 56.3657C27.7435 56.2911 27.4448 56.1737 27.1995 56.0137L27.8715 54.2057C28.1595 54.4084 28.5115 54.5097 28.9275 54.5097C29.2368 54.5097 29.4822 54.4031 29.6635 54.1897C29.8555 53.9871 29.9515 53.6777 29.9515 53.2617V44.6537H32.4475V53.2457C32.4475 54.2377 32.1648 55.0271 31.5995 55.6137C31.0342 56.2004 30.2342 56.4937 29.1995 56.4937ZM31.1995 43.4537C30.7408 43.4537 30.3675 43.3204 30.0795 43.0537C29.7915 42.7871 29.6475 42.4564 29.6475 42.0617C29.6475 41.6671 29.7915 41.3364 30.0795 41.0697C30.3675 40.8031 30.7408 40.6697 31.1995 40.6697C31.6582 40.6697 32.0315 40.7977 32.3195 41.0537C32.6075 41.2991 32.7515 41.6191 32.7515 42.0137C32.7515 42.4297 32.6075 42.7764 32.3195 43.0537C32.0422 43.3204 31.6688 43.4537 31.1995 43.4537ZM39.0178 53.3897C38.0364 53.3897 37.1724 53.1977 36.4258 52.8137C35.6898 52.4297 35.1191 51.9071 34.7138 51.2457C34.3084 50.5737 34.1058 49.8111 34.1058 48.9577C34.1058 48.0937 34.3031 47.3311 34.6978 46.6697C35.1031 45.9977 35.6524 45.4751 36.3458 45.1017C37.0391 44.7177 37.8231 44.5257 38.6978 44.5257C39.5404 44.5257 40.2978 44.7071 40.9698 45.0697C41.6524 45.4217 42.1911 45.9337 42.5858 46.6057C42.9804 47.2671 43.1778 48.0617 43.1778 48.9897C43.1778 49.0857 43.1724 49.1977 43.1618 49.3257C43.1511 49.4431 43.1404 49.5551 43.1298 49.6617H36.1378V48.2057H41.8177L40.8578 48.6377C40.8578 48.1897 40.7671 47.8004 40.5858 47.4697C40.4044 47.1391 40.1538 46.8831 39.8338 46.7017C39.5138 46.5097 39.1404 46.4137 38.7138 46.4137C38.2871 46.4137 37.9084 46.5097 37.5778 46.7017C37.2578 46.8831 37.0071 47.1444 36.8258 47.4857C36.6444 47.8164 36.5538 48.2111 36.5538 48.6697V49.0537C36.5538 49.5231 36.6551 49.9391 36.8578 50.3017C37.0711 50.6537 37.3644 50.9257 37.7378 51.1177C38.1218 51.2991 38.5698 51.3897 39.0818 51.3897C39.5404 51.3897 39.9404 51.3204 40.2818 51.1817C40.6338 51.0431 40.9538 50.8351 41.2418 50.5577L42.5698 51.9977C42.1751 52.4457 41.6791 52.7924 41.0818 53.0377C40.4844 53.2724 39.7964 53.3897 39.0178 53.3897ZM48.9995 53.3897C48.0715 53.3897 47.2448 53.2031 46.5195 52.8297C45.7942 52.4457 45.2235 51.9177 44.8075 51.2457C44.4022 50.5737 44.1995 49.8111 44.1995 48.9577C44.1995 48.0937 44.4022 47.3311 44.8075 46.6697C45.2235 45.9977 45.7942 45.4751 46.5195 45.1017C47.2448 44.7177 48.0715 44.5257 48.9995 44.5257C49.9062 44.5257 50.6955 44.7177 51.3675 45.1017C52.0395 45.4751 52.5355 46.0137 52.8555 46.7177L50.9195 47.7577C50.6955 47.3524 50.4128 47.0537 50.0715 46.8617C49.7408 46.6697 49.3782 46.5737 48.9835 46.5737C48.5568 46.5737 48.1728 46.6697 47.8315 46.8617C47.4902 47.0537 47.2182 47.3257 47.0155 47.6777C46.8235 48.0297 46.7275 48.4564 46.7275 48.9577C46.7275 49.4591 46.8235 49.8857 47.0155 50.2377C47.2182 50.5897 47.4902 50.8617 47.8315 51.0537C48.1728 51.2457 48.5568 51.3417 48.9835 51.3417C49.3782 51.3417 49.7408 51.2511 50.0715 51.0697C50.4128 50.8777 50.6955 50.5737 50.9195 50.1577L52.8555 51.2137C52.5355 51.9071 52.0395 52.4457 51.3675 52.8297C50.6955 53.2031 49.9062 53.3897 48.9995 53.3897ZM57.9376 53.3897C56.9243 53.3897 56.135 53.1337 55.5696 52.6217C55.0043 52.0991 54.7216 51.3257 54.7216 50.3017V42.7497H57.2176V50.2697C57.2176 50.6324 57.3136 50.9151 57.5056 51.1177C57.6976 51.3097 57.959 51.4057 58.2896 51.4057C58.6843 51.4057 59.0203 51.2991 59.2976 51.0857L59.9696 52.8457C59.7136 53.0271 59.4043 53.1657 59.0416 53.2617C58.6896 53.3471 58.3216 53.3897 57.9376 53.3897ZM53.3936 46.5737V44.6537H59.3616V46.5737H53.3936Z" fill="#FAFAFA"/>
<defs>
<linearGradient id="paint0_linear_1891_6272" x1="35.3321" y1="9.39594" x2="1.22177" y2="13.0857" gradientUnits="userSpaceOnUse">
<stop stop-color="#F9A95D"/>
<stop offset="0.50838" stop-color="#EB3230"/>
<stop offset="1" stop-color="#C155A7"/>
</linearGradient>
</defs>
</svg>
