<svg width="227" height="63" viewBox="0 0 227 63" fill="none" xmlns="http://www.w3.org/2000/svg">
<g clip-path="url(#clip0_1028_19547)">
<path d="M4.84249 25.1432L2.97029 21.08C2.80123 20.712 2.26612 20.7134 2.09846 21.0814L0.250002 25.1445C0.108888 25.4537 0.340818 25.8026 0.685919 25.8026H4.40658C4.75308 25.8039 4.98501 25.4537 4.84249 25.1432Z" fill="#FAFAFA"/>
<path d="M19.0993 0.969833L26.8661 17.8243C27.0352 18.1924 27.5703 18.191 27.738 17.823L29.6856 13.5437C29.8449 13.1935 29.8435 12.794 29.6828 12.4451L24.2199 0.611401C24.1011 0.355574 23.8412 0.191406 23.5548 0.191406H19.6134C19.2027 0.191406 18.9302 0.604561 19.0993 0.969833Z" fill="#FAFAFA"/>
<path d="M4.81033 16.0773L9.09824 25.3829C9.2156 25.6387 9.47687 25.8029 9.76329 25.8029H13.3177C13.7271 25.8029 13.9995 25.3897 13.8318 25.0245L9.9086 16.5233C9.76888 16.221 9.76888 15.8749 9.9058 15.5725L10.8307 13.5437C10.99 13.1935 10.9886 12.794 10.8279 12.4451L5.36501 0.611401C5.24625 0.355574 4.98637 0.191406 4.69995 0.191406H0.74457C0.3352 0.191406 0.062752 0.604561 0.230412 0.969833L5.56061 12.519C5.70033 12.8213 5.70033 13.1675 5.5634 13.4698L4.80893 15.1279C4.67061 15.4302 4.67201 15.7764 4.81033 16.0773Z" fill="#FAFAFA"/>
<path d="M24.3635 25.4143L25.1655 23.6796C25.2535 23.4909 25.2535 23.2733 25.1655 23.0832L14.7845 0.611401C14.6657 0.355574 14.4059 0.191406 14.1195 0.191406H10.1655C9.7561 0.191406 9.48365 0.605929 9.65131 0.971201L20.9251 25.3801C21.0452 25.6387 21.3079 25.8056 21.5985 25.8056H23.7459C24.0114 25.8042 24.2531 25.651 24.3635 25.4143Z" fill="#FAFAFA"/>
</g>
<path d="M10.608 39.584H6.888V43.328H10.296C12.576 43.328 13.152 42.44 13.152 41.36C13.152 40.376 12.48 39.584 10.608 39.584ZM6.888 53H2.328V36.464H11.904C15.168 36.464 17.856 38.36 17.856 41.264C17.856 43.904 15.744 45.68 13.152 46.016L18.24 53H13.056L8.736 46.52H6.888V53ZM28.9582 53H24.3982V36.464H28.9582V53ZM45.0086 53H40.1606L33.9686 36.464H38.7926L42.9926 48.032L47.0006 36.464H51.0806L45.0086 53ZM70.9238 53H56.0918V36.464H70.5158V40.064H60.6518V42.8H68.7878V46.4H60.6518V49.4H70.9238V53ZM85.7617 39.584H82.0417V43.328H85.4497C87.7297 43.328 88.3057 42.44 88.3057 41.36C88.3057 40.376 87.6337 39.584 85.7617 39.584ZM82.0417 53H77.4817V36.464H87.0577C90.3217 36.464 93.0097 38.36 93.0097 41.264C93.0097 43.904 90.8977 45.68 88.3057 46.016L93.3937 53H88.2097L83.8897 46.52H82.0417V53ZM118.123 53H113.275L107.083 36.464H111.907L116.107 48.032L120.115 36.464H124.195L118.123 53ZM133.316 46.736H138.26L135.644 40.712L133.316 46.736ZM130.892 53H126.692L133.7 36.272H138.068L145.412 53H141.02L139.628 49.856H132.092L130.892 53ZM164.184 53H150.432V36.464H154.992V48.8H164.184V53ZM183.582 53H169.83V36.464H174.39V48.8H183.582V53ZM204.06 53H189.228V36.464H203.652V40.064H193.788V42.8H201.924V46.4H193.788V49.4H204.06V53ZM215.058 53V47.12L208.338 36.464H213.282L217.674 43.424L221.826 36.464H226.242L219.618 47.12V53H215.058Z" fill="#FAFAFA"/>
<defs>
<clipPath id="clip0_1028_19547">
<rect width="30" height="26" fill="white"/>
</clipPath>
</defs>
</svg>
