<svg width="94" height="94" viewBox="0 0 94 94" fill="none" xmlns="http://www.w3.org/2000/svg">
<path d="M44.801 47.7005C44.8259 65.9761 47.0009 94.0039 47.0009 94.0039C47.0009 94.0039 49.1758 65.9761 49.2007 47.7005C49.2264 28.8849 47.0009 0 47.0009 0C47.0009 0 44.7754 28.8849 44.801 47.7005Z" fill="#D9D9D9"/>
<path d="M44.801 47.7005C44.8259 65.9761 47.0009 94.0039 47.0009 94.0039C47.0009 94.0039 49.1758 65.9761 49.2007 47.7005C49.2264 28.8849 47.0009 0 47.0009 0C47.0009 0 44.7754 28.8849 44.801 47.7005Z" fill="#D9D9D9"/>
<path d="M45.718 46.3364C37.6313 54.4451 26.1762 67.8277 26.1762 67.8277C26.1762 67.8277 39.5587 56.3725 47.6675 48.2859C56.0159 39.9602 67.8284 26.1755 67.8284 26.1755C67.8284 26.1755 54.0436 37.988 45.718 46.3364Z" fill="#D9D9D9"/>
<path d="M45.718 46.3364C37.6313 54.4451 26.1762 67.8277 26.1762 67.8277C26.1762 67.8277 39.5587 56.3725 47.6675 48.2859C56.0159 39.9602 67.8284 26.1755 67.8284 26.1755C67.8284 26.1755 54.0436 37.988 45.718 46.3364Z" fill="#D9D9D9"/>
<path d="M46.3034 44.802C28.0278 44.8269 -9.6169e-08 47.0018 -9.6169e-08 47.0018C-9.6169e-08 47.0018 28.0278 49.1768 46.3034 49.2017C65.119 49.2274 94.0039 47.0018 94.0039 47.0018C94.0039 47.0018 65.119 44.7763 46.3034 44.802Z" fill="#D9D9D9"/>
<path d="M46.3034 44.802C28.0278 44.8269 -9.6169e-08 47.0018 -9.6169e-08 47.0018C-9.6169e-08 47.0018 28.0278 49.1768 46.3034 49.2017C65.119 49.2274 94.0039 47.0018 94.0039 47.0018C94.0039 47.0018 65.119 44.7763 46.3034 44.802Z" fill="#D9D9D9"/>
<path d="M47.667 45.7175C39.5583 37.6308 26.1757 26.1757 26.1757 26.1757C26.1757 26.1757 37.6309 39.5582 45.7176 47.667C54.0432 56.0154 67.8279 67.8279 67.8279 67.8279C67.8279 67.8279 56.0154 54.0432 47.667 45.7175Z" fill="#D9D9D9"/>
<path d="M47.667 45.7175C39.5583 37.6308 26.1757 26.1757 26.1757 26.1757C26.1757 26.1757 37.6309 39.5582 45.7176 47.667C54.0432 56.0154 67.8279 67.8279 67.8279 67.8279C67.8279 67.8279 56.0154 54.0432 47.667 45.7175Z" fill="#D9D9D9"/>
</svg>
